<svg xmlns="http://www.w3.org/2000/svg" viewBox="0 0 256 256" role="img" aria-label="Aspire Shop">
  <rect width="256" height="256" rx="58" fill="#9c3b28"/>
  <rect x="14" y="14" width="228" height="228" rx="46" fill="none" stroke="#e7b27a" stroke-width="4" opacity="0.55"/>
  <g transform="translate(49 50) scale(0.615)" fill="#f4ede1">
    <path d="M239.89,198.12l-14.26-120a16,16,0,0,0-16-14.12H176a48,48,0,0,0-96,0H46.33a16,16,0,0,0-16,14.12l-14.26,120A16,16,0,0,0,20,210.6a16.13,16.13,0,0,0,12,5.4H223.92A16.13,16.13,0,0,0,236,210.6,16,16,0,0,0,239.89,198.12ZM128,32a32,32,0,0,1,32,32H96A32,32,0,0,1,128,32ZM32,200,46.33,80H209.75l14.17,120Z"/>
  </g>
</svg>
